<svg width="59" height="58" viewBox="0 0 59 58" fill="none" xmlns="http://www.w3.org/2000/svg">
<path d="M32.8225 2.63459C31.9433 -0.87819 26.9512 -0.878198 26.072 2.63458L25.8129 3.66983C25.1501 6.318 21.8351 7.20626 19.937 5.24429L19.1949 4.47729C16.6771 1.87474 12.3539 4.37078 13.3488 7.85254L13.642 8.87866C14.3921 11.5034 11.9654 13.9302 9.34058 13.1801L8.31446 12.8869C4.8327 11.8919 2.33665 16.2152 4.9392 18.733L5.7062 19.4751C7.66817 21.3731 6.77992 24.6882 4.13176 25.351L3.0965 25.6101C-0.416276 26.4893 -0.416284 31.4814 3.09649 32.3606L4.13175 32.6197C6.77991 33.2825 7.66817 36.5976 5.7062 38.4956L4.9392 39.2377C2.33666 41.7555 4.83269 46.0788 8.31445 45.0838L9.34057 44.7906C11.9654 44.0405 14.3921 46.4673 13.642 49.092L13.3488 50.1182C12.3539 53.5999 16.6771 56.096 19.1949 53.4934L19.937 52.7264C21.8351 50.7644 25.1501 51.6527 25.8129 54.3009L26.072 55.3361C26.9512 58.8489 31.9433 58.8489 32.8225 55.3361L33.0816 54.3009C33.7444 51.6527 37.0595 50.7644 38.9576 52.7264L39.6996 53.4934C42.2174 56.096 46.5407 53.5999 45.5457 50.1182L45.2525 49.0921C44.5024 46.4673 46.9292 44.0405 49.554 44.7906L50.5801 45.0838C54.0618 46.0788 56.5579 41.7555 53.9553 39.2377L53.1883 38.4957C51.2264 36.5976 52.1146 33.2825 54.7628 32.6197L55.798 32.3606C59.3108 31.4814 59.3108 26.4893 55.798 25.6101L54.7628 25.351C52.1146 24.6882 51.2264 21.3732 53.1883 19.4751L53.9553 18.733C56.5579 16.2152 54.0618 11.8919 50.5801 12.8869L49.554 13.1801C46.9292 13.9302 44.5024 11.5034 45.2525 8.87867L45.5457 7.85255C46.5407 4.37079 42.2174 1.87474 39.6996 4.47728L38.9576 5.24428C37.0595 7.20626 33.7445 6.318 33.0816 3.66984L32.8225 2.63459ZM29.4467 47.0928C19.4463 47.0928 11.3394 38.9859 11.3394 28.9855C11.3394 18.9851 19.4463 10.8781 29.4467 10.8781C39.4471 10.8781 47.554 18.9851 47.554 28.9855C47.554 38.9859 39.4471 47.0928 29.4467 47.0928Z" fill="white"/>
<path d="M20.4755 40.5794C20.4755 40.5794 18.6812 40.5794 18.6812 38.716C18.6812 36.8527 20.4755 31.2626 29.4471 31.2626C38.4188 31.2626 40.2131 36.8527 40.2131 38.716C40.2131 40.5794 38.4188 40.5794 38.4188 40.5794H20.4755Z" fill="white"/>
<path d="M29.4471 29.3993C32.4201 29.3993 34.8301 26.8966 34.8301 23.8093C34.8301 20.722 32.4201 18.2192 29.4471 18.2192C26.4742 18.2192 24.0641 20.722 24.0641 23.8093C24.0641 26.8966 26.4742 29.3993 29.4471 29.3993Z" fill="white"/>
</svg>
