<svg width="59" height="58" viewBox="0 0 59 58" fill="none" xmlns="http://www.w3.org/2000/svg">
<path fill-rule="evenodd" clip-rule="evenodd" d="M38.766 22.4657C39.4734 23.1731 39.4734 24.3202 38.766 25.0276L27.8965 35.8971C27.5567 36.2369 27.0959 36.4277 26.6155 36.4277C26.135 36.4277 25.6742 36.2369 25.3345 35.8971L19.8997 30.4624C19.1923 29.7549 19.1923 28.6079 19.8997 27.9004C20.6072 27.1929 21.7542 27.1929 22.4617 27.9004L26.6155 32.0542L36.204 22.4657C36.9115 21.7582 38.0585 21.7582 38.766 22.4657Z" fill="white"/>
<path d="M37.7879 9.10381L34.4509 5.68632L37.0432 3.15505L39.2963 5.46242L42.521 5.424C48.4001 5.35398 53.1841 10.1379 53.1141 16.0171L53.0757 19.2418L55.383 21.4949C59.5898 25.6026 59.5898 32.3681 55.383 36.4758L53.0757 38.7289L53.1141 41.9536C53.1841 47.8328 48.4001 52.6167 42.521 52.5467L39.2963 52.5083L37.0432 54.8157C32.9355 59.0224 26.17 59.0224 22.0623 54.8157L19.8092 52.5083L16.5845 52.5467C10.7053 52.6167 5.92136 47.8328 5.99139 41.9536L6.0298 38.7289L3.72243 36.4758C-0.4843 32.3681 -0.4843 25.6026 3.72243 21.4949L6.0298 19.2418L5.99139 16.0171C5.92136 10.1379 10.7053 5.35398 16.5845 5.424L19.8092 5.46242L22.0623 3.15505C26.17 -1.05168 32.9355 -1.05168 37.0432 3.15505L34.4509 5.68632C31.7648 2.93545 27.3407 2.93545 24.6546 5.68632L21.3175 9.10381L16.5414 9.04692C12.6968 9.00112 9.56851 12.1295 9.6143 15.974L9.67119 20.7501L6.2537 24.0872C3.50283 26.7733 3.50283 31.1974 6.2537 33.8835L9.67119 37.2206L9.6143 41.9967C9.56851 45.8412 12.6968 48.9696 16.5414 48.9238L21.3175 48.8669L24.6546 52.2844C27.3407 55.0353 31.7648 55.0353 34.4509 52.2844L37.7879 48.8669L42.5641 48.9238C46.4086 48.9696 49.537 45.8412 49.4912 41.9967L49.4343 37.2206L52.8518 33.8835C55.6026 31.1974 55.6026 26.7733 52.8518 24.0872L49.4343 20.7501L49.4912 15.974C49.537 12.1295 46.4086 9.00112 42.5641 9.04692L37.7879 9.10381Z" fill="white"/>
</svg>
