<svg width="68" height="52" viewBox="0 0 68 52" fill="none" xmlns="http://www.w3.org/2000/svg">
<path d="M45.6932 17.2178C45.6932 16.3041 44.9435 15.5635 44.0187 15.5635C43.0939 15.5635 42.3442 16.3041 42.3442 17.2178L42.3443 26.8125H32.2972C31.3724 26.8125 30.6227 27.5531 30.6227 28.4667C30.6227 29.3804 31.3724 30.121 32.2972 30.121H44.0188C44.4629 30.121 44.8888 29.9467 45.2028 29.6365C45.5169 29.3262 45.6933 28.9055 45.6933 28.4667L45.6932 17.2178Z" fill="white"/>
<path d="M38.9953 1.99873C38.9953 1.08512 39.745 0.344482 40.6698 0.344482H47.3678C48.2926 0.344482 49.0423 1.08512 49.0423 1.99873C49.0423 2.91235 48.2926 3.65298 47.3678 3.65298V5.54195C51.922 6.18575 56.0538 8.1222 59.3701 10.963C59.3836 10.9487 59.3974 10.9346 59.4116 10.9206L60.5956 9.75086L59.4116 8.58113C58.7576 7.9351 58.7576 6.88769 59.4116 6.24166C60.0655 5.59564 61.1257 5.59564 61.7797 6.24166L66.5159 10.9206C67.1698 11.5666 67.1698 12.614 66.5159 13.2601C65.862 13.9061 64.8017 13.9061 64.1478 13.2601L62.9637 12.0903L61.7797 13.2601C61.7656 13.274 61.7513 13.2876 61.7368 13.3009C65.3035 17.364 67.4619 22.6662 67.4619 28.4667C67.4619 41.2574 56.966 51.6263 44.0188 51.6263C31.0715 51.6263 20.5757 41.2574 20.5757 28.4667C20.5757 16.7992 29.3082 7.14805 40.6698 5.54195V3.65298C39.745 3.65298 38.9953 2.91235 38.9953 1.99873ZM44.0188 8.61574C43.4978 8.61574 42.9817 8.63529 42.4713 8.67365C32.0976 9.45325 23.9247 18.0179 23.9247 28.4667C23.9247 39.4302 32.9211 48.3178 44.0188 48.3178C55.1164 48.3178 64.1129 39.4302 64.1129 28.4667C64.1129 18.0179 55.94 9.45325 45.5663 8.67365C45.0558 8.63529 44.5398 8.61574 44.0188 8.61574Z" fill="white"/>
<rect x="4.96802" y="17.0664" width="21.1816" height="2.22964" rx="1.11482" fill="white"/>
<rect x="0.508789" y="32.6738" width="23.4112" height="2.22964" rx="1.11482" fill="white"/>
<rect x="19.4607" y="39.3628" width="7.80375" height="2.22964" rx="1.11482" fill="white"/>
<rect x="7.19775" y="39.3628" width="10.0334" height="2.22964" rx="1.11482" fill="white"/>
<rect x="0.508789" y="24.8701" width="10.0334" height="2.22964" rx="1.11482" fill="white"/>
<rect x="12.7717" y="24.8701" width="11.1482" height="2.22964" rx="1.11482" fill="white"/>
</svg>
