<svg width="59" height="58" viewBox="0 0 59 58" fill="none" xmlns="http://www.w3.org/2000/svg">
<path d="M24.0887 21.739C23.0882 21.739 22.2771 22.5501 22.2771 23.5506V34.4201C22.2771 35.4206 23.0882 36.2317 24.0887 36.2317H34.9582C35.9587 36.2317 36.7698 35.4206 36.7698 34.4201V23.5506C36.7698 22.5501 35.9587 21.739 34.9582 21.739H24.0887Z" fill="white"/>
<path d="M20.4655 1.81158C20.4655 0.811074 19.6544 0 18.6539 0C17.6534 0 16.8423 0.811074 16.8423 1.81158V7.24634C11.8398 7.24634 7.78442 11.3017 7.78442 16.3043H2.34967C1.34916 16.3043 0.538086 17.1153 0.538086 18.1158C0.538086 19.1164 1.34916 19.9274 2.34967 19.9274H7.78442V23.5506H2.34967C1.34916 23.5506 0.538086 24.3617 0.538086 25.3622C0.538086 26.3627 1.34916 27.1738 2.34967 27.1738H7.78442V30.7969H2.34967C1.34916 30.7969 0.538086 31.608 0.538086 32.6085C0.538086 33.609 1.34916 34.4201 2.34967 34.4201H7.78442V38.0433H2.34967C1.34916 38.0433 0.538086 38.8543 0.538086 39.8549C0.538086 40.8554 1.34916 41.6664 2.34967 41.6664H7.78442C7.78442 46.669 11.8398 50.7244 16.8423 50.7244V56.1591C16.8423 57.1596 17.6534 57.9707 18.6539 57.9707C19.6544 57.9707 20.4655 57.1596 20.4655 56.1591V50.7244H24.0887V56.1591C24.0887 57.1596 24.8998 57.9707 25.9003 57.9707C26.9008 57.9707 27.7119 57.1596 27.7119 56.1591V50.7244H31.335V56.1591C31.335 57.1596 32.1461 57.9707 33.1466 57.9707C34.1471 57.9707 34.9582 57.1596 34.9582 56.1591V50.7244H38.5814V56.1591C38.5814 57.1596 39.3924 57.9707 40.3929 57.9707C41.3935 57.9707 42.2045 57.1596 42.2045 56.1591V50.7244C47.2071 50.7244 51.2625 46.669 51.2625 41.6664H56.6972C57.6977 41.6664 58.5088 40.8554 58.5088 39.8549C58.5088 38.8543 57.6977 38.0433 56.6972 38.0433H51.2625V34.4201H56.6972C57.6977 34.4201 58.5088 33.609 58.5088 32.6085C58.5088 31.608 57.6977 30.7969 56.6972 30.7969H51.2625V27.1738H56.6972C57.6977 27.1738 58.5088 26.3627 58.5088 25.3622C58.5088 24.3617 57.6977 23.5506 56.6972 23.5506H51.2625V19.9274H56.6972C57.6977 19.9274 58.5088 19.1164 58.5088 18.1158C58.5088 17.1153 57.6977 16.3043 56.6972 16.3043H51.2625C51.2625 11.3017 47.2071 7.24634 42.2045 7.24634V1.81158C42.2045 0.811074 41.3935 0 40.3929 0C39.3924 0 38.5814 0.811074 38.5814 1.81158V7.24634H34.9582V1.81158C34.9582 0.811074 34.1471 0 33.1466 0C32.1461 0 31.335 0.811074 31.335 1.81158V7.24634H27.7119V1.81158C27.7119 0.811074 26.9008 0 25.9003 0C24.8998 0 24.0887 0.811074 24.0887 1.81158V7.24634H20.4655V1.81158ZM24.0887 18.1158H34.9582C37.9597 18.1158 40.3929 20.5491 40.3929 23.5506V34.4201C40.3929 37.4216 37.9597 39.8549 34.9582 39.8549H24.0887C21.0872 39.8549 18.6539 37.4216 18.6539 34.4201V23.5506C18.6539 20.5491 21.0872 18.1158 24.0887 18.1158Z" fill="white"/>
</svg>
