<svg width="42" height="46" viewBox="0 0 42 46" fill="none" xmlns="http://www.w3.org/2000/svg">
<rect x="17.8529" y="-7.62939e-06" width="12.1656" height="20.6147" transform="rotate(60 17.8529 -7.62939e-06)" fill="white"/>
<path d="M22.1415 8.75925C32.7573 8.75926 41.3632 17.3651 41.3632 27.9809C41.3632 28.3074 41.3548 28.632 41.3387 28.9546H33.4335L33.3641 29.0796L28.3241 38.2007H17.3749L17.3055 38.3257L13.5302 45.1684C7.23851 42.01 2.9198 35.5005 2.9198 27.9809C2.9198 17.3651 11.5256 8.75925 22.1415 8.75925Z" fill="white"/>
<path d="M10.2191 27.0077C12.4089 24.4123 16.0586 18.9784 16.5452 18.2484L20.4382 32.3605L15.3287 36.9835L10.2191 27.0077Z" fill="black" stroke="black" stroke-width="0.486625"/>
<path d="M26.3609 19.2802L28.4509 22.9173L30.5557 26.5458L28.4509 30.1743L26.3609 33.8114L22.1661 33.8028L17.9713 33.8114L15.8814 30.1743L13.7765 26.5458L15.8814 22.9173L17.9713 19.2802L22.1661 19.2888L26.3609 19.2802Z" fill="#3C3C3C"/>
<path d="M21.9513 18.757L21.9557 18.7568L26.6129 18.7472L28.9344 22.7857L28.9368 22.7899L31.2731 26.8188L28.9366 30.8481L28.9347 30.8526L26.6137 34.8911L21.9558 34.8819L21.9501 34.8818L17.292 34.8919L14.9722 30.8524L14.9697 30.8482L12.6313 26.8194L14.9691 22.7904L14.9724 22.7863L17.2929 18.747L21.9513 18.757Z" stroke="black" stroke-width="2.43312"/>
<mask id="mask0_3_434" style="mask-type:alpha" maskUnits="userSpaceOnUse" x="11" y="17" width="22" height="20">
<path d="M21.9513 18.757L21.9557 18.7568L26.6129 18.7472L28.9344 22.7857L28.9368 22.7899L31.2731 26.8188L28.9366 30.8481L28.9347 30.8526L26.6137 34.8911L21.9558 34.8819L21.9501 34.8818L17.292 34.8919L14.9722 30.8524L14.9697 30.8482L12.6313 26.8194L14.9691 22.7904L14.9724 22.7863L17.2929 18.747L21.9513 18.757Z" stroke="black" stroke-width="2.43312"/>
</mask>
<g mask="url(#mask0_3_434)">
<rect x="0.313354" y="26.3645" width="18.4917" height="22.3847" transform="rotate(-30 0.313354 26.3645)" fill="white"/>
</g>
<path d="M39.9032 26.7644H36.7402C36.2535 19.7086 31.6306 9.97582 21.4115 10.9491L18.0051 4.37964L21.4115 10.2189C30.4141 9.24588 39.4166 17.0321 39.9032 26.7644Z" fill="black" stroke="black" stroke-width="0.486625"/>
</svg>
