<svg width="20" height="20" viewBox="0 0 20 20" fill="none" xmlns="http://www.w3.org/2000/svg">
<path fill-rule="evenodd" clip-rule="evenodd" d="M10.0382 18.1516C8.54893 18.1516 7.09308 17.7524 5.82339 17.0017L5.52267 16.8211L2.39141 17.6384L3.22673 14.5973L3.03103 14.2837C2.20048 12.9722 1.76611 11.4564 1.76611 9.90259C1.76611 5.36945 5.47971 1.67261 10.043 1.67261C12.253 1.67261 14.3294 2.53267 15.895 4.08648C17.4558 5.64505 18.315 7.71205 18.315 9.91209C18.3103 14.4595 14.5967 18.1516 10.0382 18.1516ZM12.8783 11.1761C13.1074 11.2616 14.3294 11.8603 14.5776 11.9838C14.8258 12.1074 14.9928 12.1692 15.0549 12.2737C15.1169 12.3782 15.1169 12.8724 14.9117 13.4521C14.7017 14.0318 13.7088 14.5593 13.2315 14.6306C12.8019 14.6923 12.2625 14.7208 11.6659 14.5308C11.3031 14.4167 10.8401 14.2647 10.2482 14.0081C7.75179 12.9342 6.12411 10.4348 6 10.2685C5.8759 10.1022 4.98329 8.92849 4.98329 7.70729C4.98329 6.4861 5.62291 5.88738 5.85203 5.64029C6.08115 5.39321 6.34845 5.33143 6.51551 5.33143C6.68258 5.33143 6.84964 5.33143 6.99284 5.34094C7.14558 5.34569 7.35084 5.27916 7.55131 5.76384C7.76134 6.25802 8.25776 7.47921 8.31981 7.60276C8.38186 7.7263 8.42005 7.86885 8.3389 8.03516C8.25776 8.20147 8.2148 8.30601 8.09069 8.44856C7.96659 8.59112 7.82816 8.77168 7.71838 8.88097C7.59427 9.00451 7.46539 9.13756 7.60859 9.38465C7.75656 9.63174 8.25298 10.4443 8.99284 11.1C9.94272 11.9458 10.7446 12.2072 10.9928 12.3307C11.241 12.4543 11.389 12.4353 11.5322 12.2689C11.6754 12.1074 12.1527 11.5467 12.3198 11.2996C12.4821 11.0525 12.6492 11.0953 12.8783 11.1761Z" fill="#20B18A"/>
<path d="M14.5776 11.9838C14.3294 11.8603 13.1074 11.2616 12.8783 11.1761C12.6492 11.0953 12.4821 11.0525 12.3198 11.2996C12.1527 11.5467 11.6754 12.1074 11.5322 12.2689C11.389 12.4353 11.241 12.4543 10.9928 12.3307C10.7446 12.2072 9.94272 11.9458 8.99284 11.1C8.25298 10.4443 7.75656 9.63174 7.60859 9.38465C7.46539 9.13756 7.59427 9.00451 7.71838 8.88097C7.82816 8.77168 7.96659 8.59112 8.09069 8.44856C8.2148 8.30601 8.25776 8.20147 8.3389 8.03516C8.42005 7.86885 8.38186 7.7263 8.31981 7.60276C8.25776 7.47921 7.76134 6.25802 7.55131 5.76384C7.35084 5.27916 7.14558 5.34569 6.99284 5.34094C6.84964 5.33143 6.68258 5.33143 6.51551 5.33143C6.34845 5.33143 6.08115 5.39321 5.85203 5.64029C5.62291 5.88738 4.98329 6.4861 4.98329 7.70729C4.98329 8.92849 5.8759 10.1022 6 10.2685C6.12411 10.4348 7.75179 12.9342 10.2482 14.0081C10.8401 14.2647 11.3031 14.4167 11.6659 14.5308C12.2625 14.7208 12.8019 14.6923 13.2315 14.6306C13.7088 14.5593 14.7017 14.0318 14.9117 13.4521C15.1169 12.8724 15.1169 12.3782 15.0549 12.2737C14.9928 12.1692 14.8258 12.1074 14.5776 11.9838Z" fill="white"/>
<path fill-rule="evenodd" clip-rule="evenodd" d="M17.0788 2.90805C15.2029 1.03112 12.7017 0 10.0382 0C4.5537 0 0.0859189 4.44761 0.0811456 9.90734C0.0811456 11.656 0.53938 13.3571 1.40811 14.8634L0 20L5.27924 18.622C6.73508 19.4108 8.37231 19.8289 10.0382 19.8289H10.043C15.5274 19.8289 19.9952 15.3813 20 9.91685C19.9952 7.27014 18.9594 4.78023 17.0788 2.90805ZM5.82339 17.0017C7.09308 17.7524 8.54893 18.1516 10.0382 18.1516C14.5967 18.1516 18.3103 14.4595 18.315 9.91209C18.315 7.71205 17.4558 5.64505 15.895 4.08648C14.3294 2.53267 12.253 1.67261 10.043 1.67261C5.47971 1.67261 1.76611 5.36945 1.76611 9.90259C1.76611 11.4564 2.20048 12.9722 3.03103 14.2837L3.22673 14.5973L2.39141 17.6384L5.52267 16.8211L5.82339 17.0017Z" fill="#20B18A"/>
</svg>
